<svg width="128" height="128" viewBox="0 0 128 128" fill="none" xmlns="http://www.w3.org/2000/svg">
<path d="M64 119C94.3757 119 119 94.3757 119 64C119 33.6243 94.3757 9 64 9C33.6243 9 9 33.6243 9 64C9 94.3757 33.6243 119 64 119Z" stroke="#5C7A6B" stroke-width="18"/>
<path d="M103 45C114.046 45 123 36.0457 123 25C123 13.9543 114.046 5 103 5C91.9543 5 83 13.9543 83 25C83 36.0457 91.9543 45 103 45Z" fill="#BBC7C1"/>
<path d="M64 88C77.2548 88 88 77.2548 88 64C88 50.7452 77.2548 40 64 40C50.7452 40 40 50.7452 40 64C40 77.2548 50.7452 88 64 88Z" fill="#8DA399"/>
</svg>
