<svg width="91" height="40" viewBox="0 0 91 40" fill="none" xmlns="http://www.w3.org/2000/svg">
<path d="M19.927 0C14.642 0 9.57352 2.09945 5.83649 5.83649C2.09945 9.57352 0 14.642 0 19.927C0 25.212 2.09945 30.2805 5.83649 34.0175C9.57352 37.7546 14.642 39.854 19.927 39.854C25.212 39.854 30.2805 37.7546 34.0175 34.0175C37.7546 30.2805 39.854 25.212 39.854 19.927C39.854 14.642 37.7546 9.57352 34.0175 5.83649C30.2805 2.09945 25.212 0 19.927 0ZM19.927 9.9635C22.5695 9.9635 25.1037 11.0132 26.9723 12.8817C28.8408 14.7503 29.8905 17.2845 29.8905 19.927C29.8905 22.5695 28.8408 25.1037 26.9723 26.9723C25.1037 28.8408 22.5695 29.8905 19.927 29.8905C17.2845 29.8905 14.7503 28.8408 12.8817 26.9723C11.0132 25.1037 9.9635 22.5695 9.9635 19.927C9.9635 17.2845 11.0132 14.7503 12.8817 12.8817C14.7503 11.0132 17.2845 9.9635 19.927 9.9635Z" fill="#5C7A6B"/>
<path d="M53.803 0H46.4964C45.7627 0 45.168 0.594775 45.168 1.32847V38.5255C45.168 39.2592 45.7627 39.854 46.4964 39.854H53.803C54.5367 39.854 55.1315 39.2592 55.1315 38.5255V1.32847C55.1315 0.594775 54.5367 0 53.803 0Z" fill="#5C7A6B"/>
<path d="M76.3868 10.6277C72.5112 10.6277 68.7943 12.1673 66.0538 14.9078C63.3133 17.6483 61.7737 21.3652 61.7737 25.2409C61.7737 29.1165 63.3133 32.8334 66.0538 35.5739C68.7943 38.3144 72.5112 39.854 76.3868 39.854C80.2625 39.854 83.9794 38.3144 86.7199 35.5739C89.4604 32.8334 91 29.1165 91 25.2409C91 21.3652 89.4604 17.6483 86.7199 14.9078C83.9794 12.1673 80.2625 10.6277 76.3868 10.6277ZM76.3868 17.9343C78.3246 17.9343 80.1831 18.7041 81.5533 20.0744C82.9236 21.4446 83.6934 23.3031 83.6934 25.2409C83.6934 27.1787 82.9236 29.0372 81.5533 30.4074C80.1831 31.7777 78.3246 32.5475 76.3868 32.5475C74.449 32.5475 72.5905 31.7777 71.2203 30.4074C69.85 29.0372 69.0803 27.1787 69.0803 25.2409C69.0803 23.3031 69.85 21.4446 71.2203 20.0744C72.5905 18.7041 74.449 17.9343 76.3868 17.9343Z" fill="#5C7A6B"/>
</svg>
